G04 ================== begin FILE IDENTIFICATION RECORD ==================*
G04 Layout Name:  C:/Users/user/Desktop/work/ex2_rlc/allegro/ex_rlc.brd*
G04 Film Name:    Design*
G04 File Format:  Gerber RS274X*
G04 File Origin:  Cadence Allegro 17.2-S038*
G04 Origin Date:  Thu Jul 11 11:34:32 2019*
G04 *
G04 Layer:  VIA CLASS/BOTTOM*
G04 Layer:  VIA CLASS/TOP*
G04 Layer:  ROUTE KEEPOUT/ALL*
G04 Layer:  ROUTE KEEPIN/ALL*
G04 Layer:  REF DES/SILKSCREEN_TOP*
G04 Layer:  REF DES/SILKSCREEN_BOTTOM*
G04 Layer:  PIN/BOTTOM*
G04 Layer:  PIN/TOP*
G04 Layer:  PACKAGE KEEPIN/ALL*
G04 Layer:  PACKAGE GEOMETRY/PIN_NUMBER*
G04 Layer:  PACKAGE GEOMETRY/SILKSCREEN_TOP*
G04 Layer:  PACKAGE GEOMETRY/SILKSCREEN_BOTTOM*
G04 Layer:  PACKAGE GEOMETRY/SOLDERMASK_TOP*
G04 Layer:  PACKAGE GEOMETRY/SOLDERMASK_BOTTOM*
G04 Layer:  PACKAGE GEOMETRY/PASTEMASK_TOP*
G04 Layer:  PACKAGE GEOMETRY/PASTEMASK_BOTTOM*
G04 Layer:  MANUFACTURING/NCLEGEND-1-2*
G04 Layer:  ETCH/BOTTOM*
G04 Layer:  ETCH/TOP*
G04 Layer:  BOARD GEOMETRY/OUTLINE*
G04 Layer:  BOARD GEOMETRY/SILKSCREEN_TOP*
G04 Layer:  BOARD GEOMETRY/SILKSCREEN_BOTTOM*
G04 Layer:  BOARD GEOMETRY/SOLDERMASK_TOP*
G04 Layer:  BOARD GEOMETRY/SOLDERMASK_BOTTOM*
G04 Layer:  BOARD GEOMETRY/DESIGN_OUTLINE*
G04 *
G04 Offset:    (0.000 0.000)*
G04 Mirror:    No*
G04 Mode:      Positive*
G04 Rotation:  0*
G04 FullContactRelief:  No*
G04 UndefLineWidth:     0.000*
G04 ================== end FILE IDENTIFICATION RECORD ====================*
%FSLAX25Y25*MOMM*%
%IR0*IPPOS*OFA0.00000B0.00000*MIA0B0*SFA1.00000B1.00000*%
%ADD12C,1.524*%
%ADD14C,1.651*%
%AMMACRO15*
1,1,0.0,-.508,.3175*
20,1,0.0,-.508,.3175,-.500282,.405713,0.0*
1,1,0.0,-.500282,.405713*
20,1,0.0,-.500282,.405713,-.477364,.491246,0.0*
1,1,0.0,-.477364,.491246*
20,1,0.0,-.477364,.491246,-.439941,.5715,0.0*
1,1,0.0,-.439941,.5715*
20,1,0.0,-.439941,.5715,-.389151,.644036,0.0*
1,1,0.0,-.389151,.644036*
20,1,0.0,-.389151,.644036,-.326536,.706651,0.0*
1,1,0.0,-.326536,.706651*
20,1,0.0,-.326536,.706651,-.254,.757441,0.0*
1,1,0.0,-.254,.757441*
20,1,0.0,-.254,.757441,-.173746,.794864,0.0*
1,1,0.0,-.173746,.794864*
20,1,0.0,-.173746,.794864,-.088213,.817782,0.0*
1,1,0.0,-.088213,.817782*
20,1,0.0,-.088213,.817782,0.0,.8255,0.0*
1,1,0.0,0.0,.8255*
20,1,0.0,0.0,.8255,.088213,.817782,0.0*
1,1,0.0,.088213,.817782*
20,1,0.0,.088213,.817782,.173746,.794864,0.0*
1,1,0.0,.173746,.794864*
20,1,0.0,.173746,.794864,.254,.757441,0.0*
1,1,0.0,.254,.757441*
20,1,0.0,.254,.757441,.326536,.706651,0.0*
1,1,0.0,.326536,.706651*
20,1,0.0,.326536,.706651,.389151,.644036,0.0*
1,1,0.0,.389151,.644036*
20,1,0.0,.389151,.644036,.439941,.5715,0.0*
1,1,0.0,.439941,.5715*
20,1,0.0,.439941,.5715,.477364,.491246,0.0*
1,1,0.0,.477364,.491246*
20,1,0.0,.477364,.491246,.500282,.405713,0.0*
1,1,0.0,.500282,.405713*
20,1,0.0,.500282,.405713,.508,.3175,0.0*
1,1,0.0,.508,.3175*
20,1,0.0,.508,.3175,.508,-.3175,0.0*
1,1,0.0,.508,-.3175*
20,1,0.0,.508,-.3175,.500282,-.405713,0.0*
1,1,0.0,.500282,-.405713*
20,1,0.0,.500282,-.405713,.477364,-.491246,0.0*
1,1,0.0,.477364,-.491246*
20,1,0.0,.477364,-.491246,.439941,-.5715,0.0*
1,1,0.0,.439941,-.5715*
20,1,0.0,.439941,-.5715,.389151,-.644036,0.0*
1,1,0.0,.389151,-.644036*
20,1,0.0,.389151,-.644036,.326536,-.706651,0.0*
1,1,0.0,.326536,-.706651*
20,1,0.0,.326536,-.706651,.254,-.757441,0.0*
1,1,0.0,.254,-.757441*
20,1,0.0,.254,-.757441,.173746,-.794864,0.0*
1,1,0.0,.173746,-.794864*
20,1,0.0,.173746,-.794864,.088213,-.817782,0.0*
1,1,0.0,.088213,-.817782*
20,1,0.0,.088213,-.817782,0.0,-.8255,0.0*
1,1,0.0,0.0,-.8255*
20,1,0.0,0.0,-.8255,-.088213,-.817782,0.0*
1,1,0.0,-.088213,-.817782*
20,1,0.0,-.088213,-.817782,-.173746,-.794864,0.0*
1,1,0.0,-.173746,-.794864*
20,1,0.0,-.173746,-.794864,-.254,-.757441,0.0*
1,1,0.0,-.254,-.757441*
20,1,0.0,-.254,-.757441,-.326536,-.706651,0.0*
1,1,0.0,-.326536,-.706651*
20,1,0.0,-.326536,-.706651,-.389151,-.644036,0.0*
1,1,0.0,-.389151,-.644036*
20,1,0.0,-.389151,-.644036,-.439941,-.5715,0.0*
1,1,0.0,-.439941,-.5715*
20,1,0.0,-.439941,-.5715,-.477364,-.491246,0.0*
1,1,0.0,-.477364,-.491246*
20,1,0.0,-.477364,-.491246,-.500282,-.405713,0.0*
1,1,0.0,-.500282,-.405713*
20,1,0.0,-.500282,-.405713,-.508,-.3175,0.0*
1,1,0.0,-.508,-.3175*
20,1,0.0,-.508,-.3175,-.508,.3175,0.0*
1,1,0.0,-.508,.3175*
%
%ADD15MACRO15*%
%ADD16R,1.27X1.6*%
%AMMACRO13*
1,1,0.0,.635,0.0*
20,1,0.0,.635,0.0,.3175,.549926,0.0*
1,1,0.0,.3175,.549926*
20,1,0.0,.3175,.549926,-.3175,.549926,0.0*
1,1,0.0,-.3175,.549926*
20,1,0.0,-.3175,.549926,-.635,0.0,0.0*
1,1,0.0,-.635,0.0*
20,1,0.0,-.635,0.0,-.3175,-.549926,0.0*
1,1,0.0,-.3175,-.549926*
20,1,0.0,-.3175,-.549926,.3175,-.549926,0.0*
1,1,0.0,.3175,-.549926*
20,1,0.0,.3175,-.549926,.635,0.0,0.0*
1,1,0.0,.635,0.0*
%
%ADD13MACRO13*%
%ADD10C,.635*%
%AMMACRO11*
1,1,0.0,-.666,-.952*
20,1,0.0,-.666,-.952,.667,.953,0.0*
1,1,0.0,.667,.953*
1,1,0.0,-.666,.953*
20,1,0.0,-.666,.953,.667,-.952,0.0*
1,1,0.0,.667,-.952*
%
%ADD11MACRO11*%
%ADD17C,.254*%
%ADD18C,.308*%
G75*
%LPD*%
G75*
G36*
G01X63500Y444500D02*
Y952500D01*
X571500D01*
Y444500D01*
X63500D01*
G37*
G36*
G01Y4318000D02*
Y4826000D01*
X571500D01*
Y4318000D01*
X63500D01*
G37*
G36*
G01X5905500Y444500D02*
Y952500D01*
X6413500D01*
Y444500D01*
X5905500D01*
G37*
G36*
G01Y4318000D02*
Y4826000D01*
X6413500D01*
Y4318000D01*
X5905500D01*
G37*
G54D10*
X317500Y698500D03*
D03*
Y4572000D03*
D03*
X6159500Y698500D03*
D03*
Y4572000D03*
D03*
G54D11*
X317500Y698500D03*
Y4572000D03*
X6159500Y698500D03*
Y4572000D03*
X8380500Y493000D03*
G54D12*
X1651000Y1778000D03*
D03*
Y2032000D03*
D03*
X5588000Y1968500D03*
D03*
Y2222500D03*
D03*
G54D13*
X1651000Y1778000D03*
Y2032000D03*
X5588000Y1968500D03*
Y2222500D03*
X8380500Y1763000D03*
G54D14*
X1460500Y4064000D03*
D03*
X2476500D03*
D03*
X4254500Y1841500D03*
D03*
Y2857500D03*
D03*
G54D15*
X1460500Y4064000D03*
X2476500D03*
X4254500Y1841500D03*
Y2857500D03*
X8380500Y1128000D03*
G54D16*
X3898900Y3873500D03*
X4229100D03*
G54D17*
G01X3898900D02*
X2667000D01*
X2476500Y4064000D01*
G01X5588000Y2222500D02*
X4889500D01*
X4254500Y2857500D01*
G01X4229100Y3873500D02*
Y2990900D01*
X4254500Y2965500D01*
Y2857500D01*
G54D18*
G01Y1841500D02*
X4143700D01*
X4080200Y1778000D01*
X1651000D01*
G01X1460500Y4064000D02*
Y2222500D01*
X1651000Y2032000D01*
G01X5588000Y1968500D02*
X5461000Y1841500D01*
X4254500D01*
M02*
